[COLOR=#222222][FONT=Verdana][CENTER][FONT=Book Antiqua][SIZE=6][COLOR=Red][B]Urumi (2012) - DVDRip - 1CD -X264 - MP3 - 700MB - Team DON
[/B][/COLOR][/SIZE][/FONT]



[b]File Info[/b]
[code]
General
Complete name                            : Urumi (2012) - 1CD - XviD - MP3.mp4
Format                                   : MP4
File size                                : 714 MB
Duration                                 : 2h 13mn
Overall bit rate mode                    : Variable
Overall bit rate                         : 1 360 Kbps

Video
ID                                       : 0
Format                                   : MPEG-4 Visual
Format profile                           : Advanced Simple@L5
Format settings, BVOP                    : 2
Format settings, QPel                    : No
Format settings, GMC                     : No warppoints
Format settings, Matrix                  : Default (H.263)
Codec ID                                 : XVID
Codec ID/Hint                            : XviD
Duration                                 : 2h 13mn
Bit rate                                 : 1 245 Kbps
Width                                    : 672 pixels
Height                                   : 288 pixels
Display aspect ratio                     : 2.35:1
Frame rate                               : 23.976 fps
Color space                              : YUV
Chroma subsampling                       : 4:2:0
Bit depth                                : 8 bits
Scan type                                : Progressive
Compression mode                         : Lossy
Bits/(Pixel*Frame)                       : 0.268
Stream size                              : 1.16 GiB (92%)
Writing library                          : XviD 1.2.1 (UTC 2008-12-04)

Audio
ID                                       : 1
Format                                   : MPEG Audio
Format version                           : Version 1
Format profile                           : Layer 3
Mode                                     : Joint stereo
Mode extension                           : MS Stereo
Codec ID                                 : 55
Codec ID/Hint                            : MP3
Duration                                 : 2h 13mn
Bit rate mode                            : Variable
Bit rate                                 : 103 Kbps
Nominal bit rate                         : 112 Kbps
Channel(s)                               : 2 channels
Sampling rate                            : 44.1 KHz
Compression mode                         : Lossy
Stream size                              : 98.4 MiB (8%)
Alignment                                : Aligned on interleaves
Interleave, duration                     : 26 ms 
[/code]


[b]Ripping Credits To Team DON when Ever Share The Rips.......[/b]